<svg width="500" height="300" xmlns="http://www.w3.org/2000/svg">
    <!-- RP2040-Zero -->
    <rect x="20" y="20" width="120" height="200" style="fill:#f0f0f0;stroke:black;stroke-width:2px;" />
    <text x="30" y="40" font-family="Arial" font-size="12" fill="black">RP2040-Zero</text>
    
    <!-- RP2040-Zero Pins -->
    <text x="30" y="70" font-family="Arial" font-size="10" fill="black">+3.3V</text>
    <text x="30" y="90" font-family="Arial" font-size="10" fill="black">GND</text>
    <text x="30" y="110" font-family="Arial" font-size="10" fill="black">GP0 (SDA)</text>
    <text x="30" y="130" font-family="Arial" font-size="10" fill="black">GP1 (SCL)</text>
    <text x="30" y="150" font-family="Arial" font-size="10" fill="black">GP2 (LED_G)</text>
    <text x="30" y="170" font-family="Arial" font-size="10" fill="black">GP3 (LED_R)</text>
    <text x="30" y="190" font-family="Arial" font-size="10" fill="black">GP4 (LED_Y)</text>
    
    <!-- VEML7700 -->
    <rect x="360" y="20" width="120" height="100" style="fill:#f0f0f0;stroke:black;stroke-width:2px;" />
    <text x="370" y="40" font-family="Arial" font-size="12" fill="black">VEML7700</text>
    
    <!-- VEML7700 Pins -->
    <text x="370" y="70" font-family="Arial" font-size="10" fill="black">VCC</text>
    <text x="370" y="90" font-family="Arial" font-size="10" fill="black">GND</text>
    <text x="370" y="110" font-family="Arial" font-size="10" fill="black">SDA</text>
    <text x="370" y="130" font-family="Arial" font-size="10" fill="black">SCL</text>
    
    <!-- Resistors -->
    <rect x="200" y="170" width="20" height="20" style="fill:#cccccc;stroke:black;stroke-width:1px;" />
    <rect x="200" y="200" width="20" height="20" style="fill:#cccccc;stroke:black;stroke-width:1px;" />
    <rect x="200" y="230" width="20" height="20" style="fill:#cccccc;stroke:black;stroke-width:1px;" />
    <text x="205" y="185" font-family="Arial" font-size="10" fill="black">R</text>
    <text x="205" y="215" font-family="Arial" font-size="10" fill="black">R</text>
    <text x="205" y="245" font-family="Arial" font-size="10" fill="black">R</text>
    
    <!-- LEDs -->
    <circle cx="240" cy="180" r="10" stroke="black" stroke-width="1" fill="green" />
    <circle cx="240" cy="210" r="10" stroke="black" stroke-width="1" fill="red" />
    <circle cx="240" cy="240" r="10" stroke="black" stroke-width="1" fill="yellow" />
    
    <!-- Connections -->
    <!-- RP2040-Zero to VEML7700 -->
    <line x1="140" y1="70" x2="360" y2="70" style="stroke:black;stroke-width:2" />
    <line x1="140" y1="90" x2="360" y2="90" style="stroke:black;stroke-width:2" />
    <line x1="140" y1="110" x2="360" y2="110" style="stroke:black;stroke-width:2" />
    <line x1="140" y1="130" x2="360" y2="130" style="stroke:black;stroke-width:2" />
    
    <!-- RP2040-Zero to LEDs via Resistors -->
    <line x1="140" y1="150" x2="200" y2="180" style="stroke:black;stroke-width:2" />
    <line x1="140" y1="170" x2="200" y2="210" style="stroke:black;stroke-width:2" />
    <line x1="140" y1="190" x2="200" y2="240" style="stroke:black;stroke-width:2" />
    
    <!-- Resistors to LEDs -->
    <line x1="220" y1="180" x2="240" y2="180" style="stroke:black;stroke-width:2" />
    <line x1="220" y1="210" x2="240" y2="210" style="stroke:black;stroke-width:2" />
    <line x1="220" y1="240" x2="240" y2="240" style="stroke:black;stroke-width:2" />
    
    <!-- GND Connection -->
    <line x1="240" y1="180" x2="360" y2="90" style="stroke:black;stroke-width:2" />
    <line x1="240" y1="210" x2="360" y2="90" style="stroke:black;stroke-width:2" />
    <line x1="240" y1="240" x2="360" y2="90" style="stroke:black;stroke-width:2" />
</svg>
