<!DOCTYPE svg PUBLIC "-//W3C//DTD SVG 1.1//EN" "http://www.w3.org/Graphics/SVG/1.1/DTD/svg11.dtd"><svg width="400" height="200" xmlns="http://www.w3.org/2000/svg">
    <!-- RP2040-Zero -->
    <rect x="20" y="20" width="100" height="160" style="fill:#f0f0f0;stroke:black;stroke-width:2px;" />
    <text x="30" y="40" font-family="Arial" font-size="12" fill="black">RP2040-Zero</text>
    
    <!-- Pins -->
    <text x="30" y="70" font-family="Arial" font-size="10" fill="black">+3.3V</text>
    <text x="30" y="90" font-family="Arial" font-size="10" fill="black">GND</text>
    <text x="30" y="110" font-family="Arial" font-size="10" fill="black">GP0 (SDA)</text>
    <text x="30" y="130" font-family="Arial" font-size="10" fill="black">GP1 (SCL)</text>
    <text x="30" y="150" font-family="Arial" font-size="10" fill="black">GP2 (LED_G)</text>
    <text x="30" y="170" font-family="Arial" font-size="10" fill="black">GP3 (LED_R)</text>
    <text x="30" y="190" font-family="Arial" font-size="10" fill="black">GP4 (LED_Y)</text>
    
    <!-- VEML7700 -->
    <rect x="260" y="20" width="100" height="100" style="fill:#f0f0f0;stroke:black;stroke-width:2px;" />
    <text x="270" y="40" font-family="Arial" font-size="12" fill="black">VEML7700</text>
    
    <!-- VEML7700 Pins -->
    <text x="270" y="70" font-family="Arial" font-size="10" fill="black">VCC</text>
    <text x="270" y="90" font-family="Arial" font-size="10" fill="black">GND</text>
    <text x="270" y="110" font-family="Arial" font-size="10" fill="black">SDA</text>
    <text x="270" y="130" font-family="Arial" font-size="10" fill="black">SCL</text>
    
    <!-- Resistors -->
    <rect x="160" y="120" width="20" height="60" style="fill:#cccccc;stroke:black;stroke-width:1px;" />
    <rect x="240" y="120" width="20" height="60" style="fill:#cccccc;stroke:black;stroke-width:1px;" />
    <rect x="320" y="120" width="20" height="60" style="fill:#cccccc;stroke:black;stroke-width:1px;" />
    <text x="167" y="190" font-family="Arial" font-size="10" fill="black">R</text>
    <text x="247" y="190" font-family="Arial" font-size="10" fill="black">R</text>
    <text x="327" y="190" font-family="Arial" font-size="10" fill="black">R</text>
    
    <!-- LEDs -->
    <circle cx="180" cy="170" r="5" stroke="black" stroke-width="1" fill="green" />
    <circle cx="260" cy="170" r="5" stroke="black" stroke-width="1" fill="red" />
    <circle cx="340" cy="170" r="5" stroke="black" stroke-width="1" fill="yellow" />
    
    <!-- Connections -->
    <!-- RP2040-Zero to VEML7700 -->
    <line x1="120" y1="30" x2="260" y2="30" style="stroke:black;stroke-width:2" />
    <line x1="120" y1="50" x2="260" y2="50" style="stroke:black;stroke-width:2" />
    <line x1="120" y1="70" x2="260" y2="70" style="stroke:black;stroke-width:2" />
    <line x1="120" y1="90" x2="260" y2="90" style="stroke:black;stroke-width:2" />
    
    <!-- RP2040-Zero to LEDs -->
    <line x1="140" y1="150" x2="180" y2="170" style="stroke:black;stroke-width:2" />
    <line x1="220" y1="150" x2="260" y2="170" style="stroke:black;stroke-width:2" />
    <line x1="300" y1="150" x2="340" y2="170" style="stroke:black;stroke-width:2" />
    
    <!-- Resistors to LEDs -->
    <line x1="180" y1="120" x2="180" y2="150" style="stroke:black;stroke-width:2" />
    <line x1="260" y1="120" x2="260" y2="150" style="stroke:black;stroke-width:2" />
    <line x1="340" y1="120" x2="340" y2="150" style="stroke:black;stroke-width:2" />
    
    <!-- VEML7700 to resistors -->
    <line x1="280" y1="110" x2="180" y2="110" style="stroke:black;stroke-width:2" />
    <line x1="280" y1="130" x2="260" y2="130" style="stroke:black;stroke-width:2" />
</svg>
